<svg width="1134" height="330" xmlns="http://www.w3.org/2000/svg" xmlns:xlink="http://www.w3.org/1999/xlink" xml:space="preserve" overflow="hidden"><g transform="translate(-2035 -1073)"><g><g><g><path d="M2291.63 1277.83C2285.02 1271.97 2275.14 1271.79 2268.32 1277.4L2257.99 1267.07C2287.49 1234.89 2285.31 1184.89 2253.13 1155.39 2220.95 1125.9 2170.95 1128.07 2141.45 1160.26 2111.96 1192.44 2114.13 1242.43 2146.31 1271.93 2176.53 1299.63 2222.91 1299.63 2253.13 1271.93L2263.44 1282.24C2261.18 1285.27 2259.79 1288.85 2259.43 1292.61 2258.91 1297.35 2260.54 1302.08 2263.88 1305.49L2301.78 1343.46C2304.8 1346.43 2308.88 1348.07 2313.12 1348 2323.91 1347.67 2332.81 1339.43 2333.98 1328.69 2334.5 1323.95 2332.87 1319.22 2329.53 1315.81ZM2148.92 1264.76C2120.78 1236.62 2120.78 1191 2148.92 1162.86 2177.06 1134.72 2222.68 1134.72 2250.82 1162.86 2278.96 1191 2278.96 1236.62 2250.82 1264.76 2223.06 1292.9 2177.75 1293.21 2149.61 1265.45 2149.38 1265.22 2149.15 1264.99 2148.92 1264.76ZM2322.86 1336.83C2317.89 1341.79 2310.62 1342.59 2306.65 1338.61L2268.75 1300.64C2266.86 1298.65 2265.96 1295.93 2266.29 1293.21 2266.64 1289.88 2268.15 1286.78 2270.56 1284.45 2273.12 1281.81 2276.61 1280.26 2280.29 1280.15 2282.7 1280.09 2285.03 1281.01 2286.76 1282.69L2324.66 1320.65C2326.56 1322.63 2327.46 1325.36 2327.13 1328.08 2326.77 1331.41 2325.26 1334.51 2322.85 1336.83Z"/><path d="M2200 1234.56C2218.98 1234.56 2234.38 1219.17 2234.38 1200.19 2234.38 1181.2 2218.98 1165.81 2200 1165.81 2181.02 1165.81 2165.62 1181.2 2165.62 1200.19 2165.62 1219.17 2181.02 1234.56 2200 1234.56ZM2200 1172.69C2215.19 1172.69 2227.5 1185 2227.5 1200.19 2227.5 1215.38 2215.19 1227.69 2200 1227.69 2184.81 1227.69 2172.5 1215.38 2172.5 1200.19 2172.51 1185.01 2184.82 1172.7 2200 1172.69Z"/><path d="M2230.77 1246.1C2220.8 1243.03 2210.43 1241.46 2200 1241.44 2182.17 1241.73 2164.65 1246.11 2148.78 1254.23 2150.25 1256.1 2151.82 1257.88 2153.49 1259.58 2167.97 1252.44 2183.85 1248.59 2200 1248.31 2209.77 1248.34 2219.49 1249.82 2228.83 1252.69 2234.9 1254.41 2240.82 1256.61 2246.53 1259.27 2248.19 1257.57 2249.75 1255.77 2251.22 1253.89 2244.65 1250.69 2237.8 1248.08 2230.77 1246.1Z"/><path d="M2282.5 1152.91C2295.79 1152.96 2306.52 1163.78 2306.47 1177.07 2306.42 1188.12 2298.85 1197.73 2288.11 1200.35 2288.46 1202.63 2288.69 1204.93 2288.86 1207.25 2305.6 1203.84 2316.4 1187.5 2312.98 1170.76 2309.57 1154.01 2293.22 1143.21 2276.48 1146.63 2272.07 1147.53 2267.9 1149.38 2264.28 1152.06 2265.88 1153.72 2267.42 1155.42 2268.87 1157.18 2272.87 1154.4 2277.63 1152.91 2282.5 1152.91Z"/><path d="M2337.27 1235.69C2328.46 1228.89 2318.36 1223.96 2307.59 1221.17 2301.55 1219.33 2295.33 1218.15 2289.03 1217.64 2288.94 1219.94 2288.74 1222.23 2288.47 1224.49 2294.3 1224.97 2300.06 1226.06 2305.66 1227.77 2315.55 1230.31 2324.83 1234.82 2332.94 1241.03 2335.73 1243.19 2337.41 1246.5 2337.5 1250.03L2337.5 1279.25 2344.38 1279.25 2344.38 1250.03C2344.28 1244.43 2341.67 1239.16 2337.27 1235.69Z"/><path d="M2117.5 1152.91C2122.31 1152.91 2127.01 1154.36 2130.98 1157.08 2132.43 1155.31 2133.98 1153.61 2135.58 1151.95 2121.74 1141.96 2102.42 1145.07 2092.43 1158.9 2082.43 1172.74 2085.54 1192.06 2099.37 1202.05 2102.82 1204.54 2106.74 1206.29 2110.89 1207.2 2111.06 1204.88 2111.3 1202.58 2111.64 1200.3 2098.76 1197.03 2090.96 1183.94 2094.23 1171.06 2096.94 1160.4 2106.51 1152.94 2117.5 1152.91Z"/><path d="M2092.45 1221.16C2081.8 1224.28 2071.77 1229.19 2062.76 1235.66 2058.34 1239.14 2055.72 1244.41 2055.62 1250.03L2055.62 1279.25 2062.5 1279.25 2062.5 1250.03C2062.58 1246.55 2064.2 1243.29 2066.93 1241.13 2075.24 1235.17 2084.49 1230.66 2094.3 1227.78 2099.86 1226.22 2105.54 1225.15 2111.29 1224.57 2111.02 1222.31 2110.82 1220.03 2110.72 1217.73 2104.54 1218.33 2098.43 1219.48 2092.45 1221.16Z"/><path d="M2138.12 1297.31 2138.12 1319.66 2145 1319.66 2145 1297.31C2145.08 1293.83 2146.7 1290.57 2149.43 1288.4 2149.65 1288.24 2149.91 1288.09 2150.12 1287.93 2148.16 1286.61 2146.25 1285.18 2144.38 1283.71 2140.48 1287.16 2138.21 1292.1 2138.12 1297.31Z"/></g></g></g><text fill="#084358" font-family="Aharoni,Aharoni_MSFontService,sans-serif" font-weight="700" font-size="83" transform="matrix(1 0 0 1 2398 1261)">SIMPLE CRM</text></g></svg>